<svg id="master" xmlns="http://www.w3.org/2000/svg" viewBox="0 0 386.6 273.8"><defs><style>.cls-1{fill:#030608}</style></defs><path class="cls-1" d="M244.2 174.2 141.6 71.7 24.7 188.6h11.8L141.6 83.5l90.7 90.7h11.9z"/><path class="cls-1" d="M123.7 126h13.6a1.7 1.7 0 0 1 1.7 1.8v13.5a1.7 1.7 0 0 1-1.8 1.8h-13.5a1.7 1.7 0 0 1-1.7-1.8v-13.5a1.7 1.7 0 0 1 1.7-1.7ZM146.4 126h13.5a1.7 1.7 0 0 1 1.7 1.8v13.5a1.7 1.7 0 0 1-1.7 1.8h-13.5a1.7 1.7 0 0 1-1.7-1.8v-13.5a1.7 1.7 0 0 1 1.7-1.7Z"/><rect class="cls-1" x="144.7" y="148.1" width="17" height="17" rx="1.7"/><rect class="cls-1" x="122" y="148.1" width="17" height="17" rx="1.7"/><path class="cls-1" d="M.8 161c-5.3 5 16.8 27.2 22.6 21.9L125.6 80.4l-22.5-22ZM194.8 62.6l-1.6-1.5c-2.4-2.9-8.3-8.4-11.4-11.4-2.7-2.7-1.1-2.1-7-2-3.5 0-5.4-.9-4.8-4.8v-2.4c.4-3 0-2.6-3-5.5-7.5-7.3-15.2-15.4-23.2-22.3A50.6 50.6 0 0 0 131 4.2a45 45 0 0 0-30.2-2.8C95.1 3 92.4 4.4 87.3 7c-1.9 1-7.5 4.3-7.5 6.2a2.8 2.8 0 0 0 1.4 2.4c.7.2 5.8.3 7.3.3l7 .5c6.2 1 11.3 2 16.4 6.2a24 24 0 0 1 3.9 3.8 13.6 13.6 0 0 1 3.3 9c0 1.8-2.8 6-4 7.8-1.7 2.4-4.6 5.2-5.5 6.5-2 2.8-1.4 3.1 1.2 5.7l18.8 18.2c1.8 1.5 2.2 1.5 4.6-.4l2.4-2c2.7-2 8.4-6 11.6-5.5 1.8.3 2 .4 3 1.4 1.4 1.4 1.3 4.1 1 6a7.8 7.8 0 0 0 0 1.1c0 1.6-.7.8.9 2.3l10 9.8 2.2 2.1 1 1 1.2 1c.3.3 2 1.8 2.8 1.7l1-.5c4.7-3 20.6-19.4 25.3-24.6 1.2-1.4-.2-2.6-1.8-4.4ZM155 45.1l-6.8-6.3c-11.9-11-15.3-15.8-28.6-23a60.9 60.9 0 0 0-21.6-5c1-1.5 9-2.2 10.6-2.2a37 37 0 0 1 18.9 3.7c7.1 3.2 21.3 17.2 30.3 25.8 1.3 1.6 2.8 2.8 2.8 4.3 0 2.2-3 5-5.6 2.7Zm24.6 24.3a61.1 61.1 0 0 1-5.4-5L173 63a3.9 3.9 0 0 1-1.6-2.8 3.6 3.6 0 0 1 3.8-3.6c2.1 0 5.6 4 7 5.4l1.5 1.6.6.6ZM188.2 83.8l-12.3 12.3 7.4 7.4 7.9-5.3 3.7 3.6 3.6-3.7 2.1 2.1-3.7 3.7 3.2 3.2 3.7-3.7 2.1 2.1-3.7 3.6 3.3 3.3 3.6-3.7 2.1 2.1-3.7 3.7 44.8 45.6 25.1 12.9-13.8-24.2-61-62 5.3-7.9-7.4-7.4-12.3 12.3zM98.2 199.6l-16.1 17.8-15.9-17.8v20.6H54.5v-36.7h9.7l18.2 19.1 17.9-19.1h9.6v36.7H98.2v-20.6zM145.8 200.9l-3.6-5.7h-13l7.7-11.7h10.2l23.9 36.7h-13.6l-6.8-10.9h-18.2l-6.8 10.9H113l12.6-19.3h20.2zM209.5 196.4v-3.7h-22.2V211h22.2v-5.6h11.7v14.8h-45.6v-36.7h45.6v12.9h-11.7zM261.1 192.7v27.5h-12.3v-27.5h-18.9l-6-9.2h57.2v9.2h-20zM317.6 205.5h-19.4v5.5h33v9.2h-44.7v-36.7h44.3v9.2h-32.6v4.6h19.4v8.2zM374.1 198.7v-6h-34.4v-9.3H376a10.4 10.4 0 0 1 10.6 10.4v3.4a9 9 0 0 1-2 6 11 11 0 0 1-4.5 3.2 13.1 13.1 0 0 1-4.5 1h-23.5v12.7h-12.4v-21.4ZM225 258.2v-27.5h-40.7a73.2 73.2 0 0 1-1 13.7 37.6 37.6 0 0 1-2.5 8.4 19.4 19.4 0 0 1-2.4 4.2l-1 1.2H172v15.6h11.2v-6.4h36.1v6.4h11.2v-15.6Zm-14.6 0h-21.3l1.4-2a24 24 0 0 0 2.6-6 35 35 0 0 0 1.2-10.3h16.1ZM236.4 230.7v36.7h51.3v-36.7Zm39.6 27.5h-27.9V240H276ZM339.9 246.8l-16.1 17.8-15.9-17.8v20.6h-11.7v-36.7h9.7l18.2 19.2 17.8-19.2h9.7v36.7h-11.7v-20.6z"/></svg>