<svg aria-hidden="true" style="position: absolute; width: 0; height: 0; overflow: hidden;" version="1.1" xmlns="http://www.w3.org/2000/svg" xmlns:xlink="http://www.w3.org/1999/xlink">
<defs>
<symbol id="location" viewBox="0 0 32 32">
<path d="M25 13c0-4.971-4.029-9-9-9s-9 4.029-9 9v0c0 3.692 2.954 8.504 9 14.268 6.046-5.764 9-10.576 9-14.268zM16 30c-7.334-6.666-11-12.334-11-17 0-6.075 4.925-11 11-11s11 4.925 11 11v0c0 4.666-3.666 10.334-11 17z"></path>
<path d="M16 16c1.657 0 3-1.343 3-3s-1.343-3-3-3v0c-1.657 0-3 1.343-3 3s1.343 3 3 3v0zM16 18c-2.761 0-5-2.239-5-5s2.239-5 5-5v0c2.761 0 5 2.239 5 5s-2.239 5-5 5v0z"></path>
</symbol>
<symbol id="arrow-up" viewBox="0 0 32 32">
<path d="M16 30c-7.732 0-14-6.27-14-14s6.268-14 14-14 14 6.27 14 14-6.268 14-14 14zM16 0c-8.837 0-16 7.16-16 16s7.163 16 16 16 16-7.16 16-16-7.163-16-16-16zM16.879 9.46c-0.173-0.169-0.41-0.273-0.671-0.273-0.074 0-0.145 0.008-0.214 0.024l0.006-0.001c-0.062-0.014-0.134-0.023-0.208-0.023-0.261 0-0.498 0.104-0.671 0.273l0-0-5.656 5.66c-0.181 0.182-0.293 0.433-0.293 0.71s0.112 0.528 0.293 0.71l-0-0c0.181 0.181 0.431 0.293 0.707 0.293s0.526-0.112 0.707-0.293v0l4.121-4.13v10.59c0.025 0.533 0.463 0.956 1 0.956s0.975-0.423 1-0.954l0-0.002v-10.59l4.121 4.13c0.181 0.181 0.431 0.293 0.707 0.293s0.526-0.112 0.707-0.293v0c0.391-0.4 0.391-1.030 0-1.42l-5.656-5.66z"></path>
</symbol>
<symbol id="phone" viewBox="0 0 32 32">
<path d="M24.533 27.667h-0.307c-3.644-0.407-6.936-1.634-9.779-3.492l0.085 0.052c-2.73-1.756-4.986-4.008-6.694-6.647l-0.052-0.086c-1.81-2.764-3.038-6.066-3.431-9.62l-0.009-0.1c-0.010-0.094-0.016-0.203-0.016-0.314 0-0.763 0.279-1.461 0.739-1.997l-0.003 0.004c0.518-0.628 1.271-1.046 2.122-1.119l0.012-0.001h3.467c1.567 0.002 2.866 1.149 3.104 2.649l0.002 0.018c0.127 0.953 0.364 1.888 0.707 2.787 0.124 0.326 0.196 0.702 0.196 1.095 0 0.868-0.35 1.654-0.916 2.225l-0.813 0.813c1.301 2.034 2.985 3.708 4.961 4.961l0.065 0.039 0.813-0.8c0.571-0.566 1.357-0.916 2.225-0.916 0.393 0 0.77 0.072 1.117 0.203l-0.022-0.007c0.804 0.315 1.744 0.562 2.719 0.699l0.067 0.008c1.519 0.235 2.668 1.532 2.668 3.099 0 0.026-0 0.053-0.001 0.079l0-0.004v3.2c0 0 0 0 0 0 0 1.733-1.401 3.139-3.133 3.147h-0.001l0.107 0.027zM10.667 6.333h-3.187c-0.328 0.022-0.615 0.178-0.812 0.412l-0.001 0.002c-0.169 0.193-0.271 0.447-0.271 0.726 0 0.035 0.002 0.071 0.005 0.105l-0-0.004c0.35 3.314 1.45 6.314 3.128 8.906l-0.048-0.079c1.595 2.478 3.642 4.525 6.041 6.072l0.079 0.048c2.515 1.647 5.516 2.768 8.746 3.138l0.094 0.009c0.020 0.001 0.043 0.002 0.067 0.002 0.322 0 0.613-0.128 0.827-0.335l-0 0c0.205-0.21 0.332-0.497 0.333-0.813v-3.187c0-0.007 0-0.016 0-0.024 0-0.577-0.426-1.054-0.981-1.135l-0.006-0.001c-1.208-0.165-2.297-0.445-3.332-0.835l0.105 0.035c-0.121-0.047-0.26-0.073-0.406-0.073-0.314 0-0.599 0.125-0.807 0.327l0-0-1.333 1.333c-0.182 0.178-0.432 0.288-0.707 0.288-0.181 0-0.351-0.047-0.498-0.13l0.005 0.003c-2.861-1.637-5.171-3.943-6.767-6.713l-0.046-0.087c-0.084-0.142-0.134-0.314-0.134-0.497 0-0.275 0.113-0.524 0.294-0.703l1.333-1.333c0.202-0.205 0.327-0.486 0.327-0.797 0-0.145-0.027-0.283-0.077-0.411l0.003 0.008c-0.356-0.931-0.636-2.020-0.791-3.148l-0.009-0.078c-0.069-0.581-0.559-1.027-1.152-1.027-0.007 0-0.015 0-0.022 0l0.001-0z"></path>
</symbol>
<symbol id="telegram" viewBox="0 0 32 32">
<path d="M26.070 3.996c-0.342 0.026-0.659 0.105-0.952 0.23l0.019-0.007h-0.004c-0.285 0.113-1.64 0.683-3.7 1.547l-7.382 3.109c-5.297 2.23-10.504 4.426-10.504 4.426l0.062-0.024s-0.359 0.118-0.734 0.375c-0.234 0.15-0.429 0.339-0.582 0.56l-0.004 0.007c-0.184 0.27-0.332 0.683-0.277 1.11 0.090 0.722 0.558 1.155 0.894 1.394 0.34 0.242 0.664 0.355 0.664 0.355h0.008l4.883 1.645c0.219 0.703 1.488 4.875 1.793 5.836 0.18 0.574 0.355 0.933 0.574 1.207 0.106 0.14 0.23 0.257 0.379 0.351 0.071 0.042 0.152 0.078 0.238 0.104l0.008 0.002-0.050-0.012c0.015 0.004 0.027 0.016 0.038 0.020 0.040 0.011 0.067 0.015 0.118 0.023 0.773 0.234 1.394-0.246 1.394-0.246l0.035-0.028 2.883-2.625 4.832 3.707 0.11 0.047c1.007 0.442 2.027 0.196 2.566-0.238 0.543-0.437 0.754-0.996 0.754-0.996l0.035-0.090 3.734-19.129c0.106-0.472 0.133-0.914 0.016-1.343-0.126-0.443-0.404-0.808-0.774-1.043l-0.007-0.004c-0.277-0.171-0.613-0.272-0.972-0.272-0.033 0-0.066 0.001-0.099 0.003l0.005-0zM25.969 6.046c-0.004 0.063 0.008 0.056-0.020 0.177v0.011l-3.699 18.93c-0.016 0.027-0.043 0.086-0.117 0.145-0.078 0.062-0.14 0.101-0.465-0.028l-5.91-4.531-3.57 3.254 0.75-4.79 9.656-9c0.398-0.37 0.265-0.448 0.265-0.448 0.028-0.454-0.601-0.133-0.601-0.133l-12.176 7.543-0.004-0.020-5.851-1.972c0.012-0.004 0.022-0.008 0.032-0.013l-0.002 0.001 0.032-0.016 0.031-0.011s5.211-2.196 10.508-4.426c2.652-1.117 5.324-2.242 7.379-3.11 2.055-0.863 3.574-1.496 3.66-1.53 0.082-0.032 0.043-0.032 0.102-0.032z"></path>
</symbol>
<symbol id="vk" viewBox="0 0 32 32">
<path d="M31.207 22.487c-0.765-1.521-1.71-2.824-2.831-3.953l0.001 0.001c-0.395-0.445-0.789-0.854-1.199-1.246l-0.008-0.007-0.051-0.049c-0.158-0.154-0.308-0.304-0.457-0.455l-0.005-0.005c1.468-2.018 2.809-4.311 3.912-6.734l0.101-0.248 0.044-0.099 0.031-0.104c0.145-0.484 0.311-1.404-0.276-2.236-0.608-0.859-1.58-1.013-2.232-1.013h-2.996c-0.040-0.002-0.088-0.003-0.135-0.003-1.266 0-2.348 0.791-2.778 1.905l-0.007 0.020c-0.708 1.669-1.515 3.103-2.457 4.434l0.049-0.073v-3.511c0-0.453-0.043-1.213-0.529-1.853-0.581-0.768-1.423-0.92-2.007-0.92h-4.755c-0.017-0-0.036-0.001-0.056-0.001-1.274 0-2.317 0.985-2.411 2.235l-0 0.008-0.004 0.060v0.060c0 0.647 0.256 1.124 0.461 1.424 0.092 0.135 0.189 0.257 0.252 0.335l0.013 0.017c0.067 0.083 0.111 0.137 0.155 0.199 0.117 0.157 0.284 0.403 0.332 1.035v1.964c-0.881-1.446-1.67-3.116-2.279-4.871l-0.056-0.185-0.011-0.029-0.011-0.028c-0.163-0.425-0.423-1.044-0.944-1.516-0.608-0.553-1.328-0.707-1.983-0.707h-3.040c-0.663 0-1.461 0.155-2.057 0.783-0.585 0.619-0.652 1.36-0.652 1.752v0.179l0.037 0.173c0.904 4.107 2.67 7.706 5.107 10.744l-0.039-0.051c2.279 3.553 6.092 5.95 10.482 6.254l0.042 0.002 0.055 0.004h0.056c0.968 0 1.977-0.084 2.736-0.589 1.023-0.683 1.104-1.729 1.104-2.252v-1.517c0.263 0.213 0.588 0.499 0.987 0.883 0.483 0.483 0.867 0.901 1.196 1.267l0.176 0.195c0.256 0.285 0.508 0.567 0.737 0.797 0.288 0.289 0.644 0.608 1.089 0.844 0.484 0.255 0.992 0.371 1.531 0.371h3.041c0.641 0 1.56-0.152 2.207-0.901 0.704-0.816 0.651-1.817 0.429-2.536l-0.040-0.129-0.060-0.121zM23.58 22.628c-0.433-0.483-0.85-0.924-1.277-1.353l-0.003-0.003c-1.809-1.744-2.653-2.047-3.251-2.047-0.319 0-0.669 0.035-0.897 0.32-0.099 0.13-0.168 0.287-0.195 0.458l-0.001 0.006c-0.028 0.159-0.043 0.343-0.043 0.53 0 0.022 0 0.044 0.001 0.065l-0-0.003v2.735c0 0.34-0.056 0.483-0.213 0.587-0.209 0.14-0.656 0.253-1.615 0.253-3.802-0.266-7.069-2.338-8.975-5.355l-0.028-0.047-0.011-0.017-0.013-0.016c-2.234-2.762-3.881-6.095-4.695-9.741l-0.030-0.159c0.005-0.173 0.043-0.279 0.104-0.343 0.063-0.067 0.216-0.16 0.605-0.16h3.040c0.337 0 0.513 0.075 0.64 0.188 0.141 0.131 0.267 0.351 0.416 0.743 0.747 2.195 1.755 4.248 2.711 5.756 0.477 0.755 0.947 1.383 1.371 1.827 0.212 0.221 0.419 0.405 0.617 0.536 0.191 0.125 0.408 0.225 0.632 0.225 0.117 0 0.255-0.013 0.387-0.071 0.144-0.065 0.259-0.172 0.332-0.306l0.002-0.004c0.137-0.251 0.176-0.62 0.176-1.104v-4.497c-0.071-1.091-0.4-1.705-0.72-2.141-0.078-0.105-0.143-0.189-0.211-0.271l0.011 0.014-0.017-0.021c-0.051-0.061-0.104-0.131-0.155-0.202l-0.007-0.011c-0.063-0.078-0.104-0.176-0.113-0.284l-0-0.002c0.022-0.212 0.199-0.376 0.415-0.376 0.006 0 0.012 0 0.018 0l-0.001-0h4.793c0.275 0 0.367 0.067 0.413 0.129 0.067 0.087 0.123 0.267 0.123 0.645v6.037c0 0.717 0.331 1.203 0.811 1.203 0.552 0 0.951-0.335 1.647-1.031l0.012-0.013 0.011-0.012c1.495-1.812 2.767-3.888 3.724-6.131l0.063-0.165 0.005-0.016c0.139-0.381 0.498-0.649 0.92-0.649 0.024 0 0.047 0.001 0.070 0.002l-0.003-0h3.067c0.416 0 0.552 0.107 0.597 0.169 0.047 0.067 0.080 0.209 0 0.489-1.197 2.649-2.546 4.927-4.11 7.035l0.072-0.101-0.011 0.016c-0.153 0.236-0.323 0.497-0.347 0.796-0.027 0.323 0.112 0.615 0.356 0.929 0.177 0.261 0.544 0.62 0.916 0.984l0.035 0.035c0.389 0.381 0.812 0.795 1.151 1.195l0.009 0.009 0.009 0.011c0.985 0.983 1.816 2.12 2.452 3.373l0.035 0.075c0.101 0.347 0.040 0.525-0.040 0.617-0.092 0.107-0.299 0.207-0.691 0.207h-3.043c-0.009 0-0.019 0-0.030 0-0.207 0-0.402-0.052-0.573-0.144l0.006 0.003c-0.232-0.136-0.431-0.297-0.604-0.484l-0.002-0.002c-0.191-0.191-0.397-0.421-0.651-0.703l-0.196-0.219z"></path>
</symbol>
<symbol id="whats-app" viewBox="0 0 32 32">
<path d="M27.333 4.667c-3-3-7.067-4.667-11.333-4.667-8.787 0-16 7.213-16 16 0 2.813 0.867 5.48 2.267 7.893l-2.267 8.107 8.44-2.067c2.333 1.28 4.893 2.067 7.56 2.067 8.787 0 16-7.213 16-16 0-4.253-1.653-8.32-4.667-11.333zM16 29.333c-2.373 0-4.64-0.787-6.68-1.987l-0.48-0.293-5.013 1.32 1.333-4.893-0.32-0.507c-1.32-2.107-2.173-4.467-2.173-6.973 0-7.307 6.027-13.333 13.333-13.333 3.533 0 6.933 1.4 9.44 3.907s3.893 5.893 3.893 9.427c0 7.307-6.040 13.333-13.333 13.333zM23.333 19.267c-0.4-0.2-2.36-1.16-2.72-1.293s-0.627-0.2-0.893 0.2c-0.267 0.4-1.027 1.293-1.267 1.56-0.227 0.267-0.467 0.293-0.867 0.093s-1.68-0.613-3.2-1.973c-1.187-1.053-1.987-2.36-2.213-2.76s-0.027-0.613 0.173-0.813c0.173-0.173 0.4-0.467 0.6-0.693s0.267-0.4 0.4-0.667c0.133-0.267 0.067-0.493-0.027-0.693-0.107-0.2-0.907-2.16-1.24-2.96-0.32-0.773-0.653-0.667-0.893-0.68-0.227-0.013-0.493-0.013-0.76-0.013s-0.693 0.107-1.067 0.493c-0.36 0.4-1.387 1.373-1.387 3.333s1.427 3.853 1.627 4.12c0.2 0.267 2.813 4.293 6.8 6.013 0.947 0.413 1.693 0.653 2.267 0.84 0.96 0.307 1.827 0.267 2.507 0.16 0.76-0.12 2.36-0.96 2.693-1.893s0.333-1.733 0.227-1.893c-0.093-0.173-0.36-0.28-0.76-0.48z"></path>
</symbol>
<symbol id="master" viewBox="0 0 386.6 273.8"><path class="cls-1" d="M244.2 174.2 141.6 71.7 24.7 188.6h11.8L141.6 83.5l90.7 90.7h11.9z"/><path class="cls-1" d="M123.7 126h13.6a1.7 1.7 0 0 1 1.7 1.8v13.5a1.7 1.7 0 0 1-1.8 1.8h-13.5a1.7 1.7 0 0 1-1.7-1.8v-13.5a1.7 1.7 0 0 1 1.7-1.7ZM146.4 126h13.5a1.7 1.7 0 0 1 1.7 1.8v13.5a1.7 1.7 0 0 1-1.7 1.8h-13.5a1.7 1.7 0 0 1-1.7-1.8v-13.5a1.7 1.7 0 0 1 1.7-1.7Z"/><rect class="cls-1" x="144.7" y="148.1" width="17" height="17" rx="1.7"/><rect class="cls-1" x="122" y="148.1" width="17" height="17" rx="1.7"/><path class="cls-1" d="M.8 161c-5.3 5 16.8 27.2 22.6 21.9L125.6 80.4l-22.5-22ZM194.8 62.6l-1.6-1.5c-2.4-2.9-8.3-8.4-11.4-11.4-2.7-2.7-1.1-2.1-7-2-3.5 0-5.4-.9-4.8-4.8v-2.4c.4-3 0-2.6-3-5.5-7.5-7.3-15.2-15.4-23.2-22.3A50.6 50.6 0 0 0 131 4.2a45 45 0 0 0-30.2-2.8C95.1 3 92.4 4.4 87.3 7c-1.9 1-7.5 4.3-7.5 6.2a2.8 2.8 0 0 0 1.4 2.4c.7.2 5.8.3 7.3.3l7 .5c6.2 1 11.3 2 16.4 6.2a24 24 0 0 1 3.9 3.8 13.6 13.6 0 0 1 3.3 9c0 1.8-2.8 6-4 7.8-1.7 2.4-4.6 5.2-5.5 6.5-2 2.8-1.4 3.1 1.2 5.7l18.8 18.2c1.8 1.5 2.2 1.5 4.6-.4l2.4-2c2.7-2 8.4-6 11.6-5.5 1.8.3 2 .4 3 1.4 1.4 1.4 1.3 4.1 1 6a7.8 7.8 0 0 0 0 1.1c0 1.6-.7.8.9 2.3l10 9.8 2.2 2.1 1 1 1.2 1c.3.3 2 1.8 2.8 1.7l1-.5c4.7-3 20.6-19.4 25.3-24.6 1.2-1.4-.2-2.6-1.8-4.4ZM155 45.1l-6.8-6.3c-11.9-11-15.3-15.8-28.6-23a60.9 60.9 0 0 0-21.6-5c1-1.5 9-2.2 10.6-2.2a37 37 0 0 1 18.9 3.7c7.1 3.2 21.3 17.2 30.3 25.8 1.3 1.6 2.8 2.8 2.8 4.3 0 2.2-3 5-5.6 2.7Zm24.6 24.3a61.1 61.1 0 0 1-5.4-5L173 63a3.9 3.9 0 0 1-1.6-2.8 3.6 3.6 0 0 1 3.8-3.6c2.1 0 5.6 4 7 5.4l1.5 1.6.6.6ZM188.2 83.8l-12.3 12.3 7.4 7.4 7.9-5.3 3.7 3.6 3.6-3.7 2.1 2.1-3.7 3.7 3.2 3.2 3.7-3.7 2.1 2.1-3.7 3.6 3.3 3.3 3.6-3.7 2.1 2.1-3.7 3.7 44.8 45.6 25.1 12.9-13.8-24.2-61-62 5.3-7.9-7.4-7.4-12.3 12.3zM98.2 199.6l-16.1 17.8-15.9-17.8v20.6H54.5v-36.7h9.7l18.2 19.1 17.9-19.1h9.6v36.7H98.2v-20.6zM145.8 200.9l-3.6-5.7h-13l7.7-11.7h10.2l23.9 36.7h-13.6l-6.8-10.9h-18.2l-6.8 10.9H113l12.6-19.3h20.2zM209.5 196.4v-3.7h-22.2V211h22.2v-5.6h11.7v14.8h-45.6v-36.7h45.6v12.9h-11.7zM261.1 192.7v27.5h-12.3v-27.5h-18.9l-6-9.2h57.2v9.2h-20zM317.6 205.5h-19.4v5.5h33v9.2h-44.7v-36.7h44.3v9.2h-32.6v4.6h19.4v8.2zM374.1 198.7v-6h-34.4v-9.3H376a10.4 10.4 0 0 1 10.6 10.4v3.4a9 9 0 0 1-2 6 11 11 0 0 1-4.5 3.2 13.1 13.1 0 0 1-4.5 1h-23.5v12.7h-12.4v-21.4ZM225 258.2v-27.5h-40.7a73.2 73.2 0 0 1-1 13.7 37.6 37.6 0 0 1-2.5 8.4 19.4 19.4 0 0 1-2.4 4.2l-1 1.2H172v15.6h11.2v-6.4h36.1v6.4h11.2v-15.6Zm-14.6 0h-21.3l1.4-2a24 24 0 0 0 2.6-6 35 35 0 0 0 1.2-10.3h16.1ZM236.4 230.7v36.7h51.3v-36.7Zm39.6 27.5h-27.9V240H276ZM339.9 246.8l-16.1 17.8-15.9-17.8v20.6h-11.7v-36.7h9.7l18.2 19.2 17.8-19.2h9.7v36.7h-11.7v-20.6z"/></symbol>
</defs>
</svg>
